<svg xmlns="http://www.w3.org/2000/svg" xmlns:xlink="http://www.w3.org/1999/xlink" version="1.1" viewBox="0 1032.23 3682.93 1100.54">		<g id="document" transform="scale(0.9999713100842199 0.9999713100842199) translate(2048.0 1582.5454030943329)">			<g>				<path d="M-1561.62,-542.474 C-1563.39,-537.859 -1589.67,-479.28 -1619.84,-411.826 C-1650.02,-344.371 -1706.11,-218.339 -1744.81,-131.358 C-1783.51,-44.3778 -1864.45,137.749 -1925.16,273.367 C-1985.52,408.986 -2038.06,526.853 -2041.61,535.018 L-2048,550.284 L-1840.67,550.284 L-1820.79,508.392 L-1801.26,466.854 L-1698.3,419.991 C-1641.85,394.43 -1516.53,336.916 -1419.97,292.893 C-1323.4,248.516 -1242.1,212.303 -1239.26,211.948 C-1234.29,211.238 -1212.28,257.391 -1121.75,459.044 L-1080.92,550.284 L-869.682,550.284 L-874.652,538.569 C-877.137,532.533 -906.959,466.499 -940.686,392.299 C-974.413,318.1 -1015.95,225.794 -1033.35,187.097 L-1064.94,116.447 L-980.804,23.7865 C-934.651,-27.3367 -893.113,-73.4896 -888.143,-78.8149 C-880.332,-87.3354 -888.853,-84.8503 -969.443,-55.3834 C-1101.87,-7.10041 -1117.49,-1.77509 -1119.97,-4.26025 C-1122.46,-6.39037 -1216.89,-213.723 -1313.46,-428.867 L-1368.49,-550.284 L-1558.42,-550.284 L-1561.62,-542.474 Z M-1459.02,-284.018 C-1459.02,-281.888 -1424.58,-204.848 -1383.04,-112.542 C-1341.15,-20.5913 -1306.36,57.1586 -1305.65,59.9987 C-1304.58,65.3241 -1320.91,71.7145 -1543.87,153.015 C-1618.78,180.351 -1680.91,202.008 -1681.62,200.943 C-1683.75,198.812 -1671.32,170.411 -1556.29,-82.3651 C-1506.59,-191.712 -1466.12,-282.598 -1466.12,-284.373 C-1466.12,-286.148 -1464.34,-287.568 -1462.57,-287.568 C-1460.44,-287.568 -1459.02,-285.793 -1459.02,-284.018 Z " fill="#06677a" fill-opacity="1.00"/>				<path d="M452.814,-393.928 C447.843,-393.218 433.642,-389.313 420.862,-385.408 C354.117,-364.461 301.929,-310.143 284.178,-243.754 C277.433,-218.192 277.433,-158.549 284.178,-132.632 C300.864,-68.7281 347.017,-17.6049 407.726,4.05146 C427.607,11.1519 442.163,13.282 474.825,14.7021 C540.504,17.1873 583.817,4.4065 633.165,-32.1608 L655.176,-48.4918 L655.176,-211.802 L491.866,-211.802 L491.866,-147.898 L580.622,-147.898 L580.622,-73.3434 L566.421,-66.2429 C526.303,-45.6517 470.565,-43.1665 433.642,-60.2075 C405.951,-72.9883 380.389,-98.1949 366.543,-126.242 C355.893,-148.253 355.183,-151.803 355.183,-188.726 C355.183,-225.293 355.893,-229.198 366.188,-250.854 C391.04,-303.043 444.293,-332.865 502.517,-327.894 C535.534,-324.699 549.38,-320.084 574.586,-302.688 L596.953,-287.422 L617.189,-315.823 L637.425,-344.58 L627.84,-352.746 C610.798,-366.592 569.261,-385.763 543.344,-391.088 C520.268,-396.058 473.405,-397.479 452.814,-393.928 Z " fill="#1a3156" fill-opacity="1.00"/>				<path d="M-650.595,-354.876 C-658.761,-335.705 -695.683,-247.304 -732.96,-158.549 C-770.593,-69.7931 -801.835,5.11657 -802.9,7.60169 C-804.32,11.1519 -796.509,11.8619 -766.332,11.1519 L-727.635,10.0869 L-708.464,-37.1311 L-689.293,-83.994 L-510.006,-83.994 L-469.534,11.8619 L-430.481,11.8619 C-400.66,11.8619 -391.784,10.7969 -393.204,7.24665 C-399.594,-9.08432 -556.869,-378.307 -559.354,-383.278 C-562.195,-388.248 -568.23,-389.313 -599.472,-389.313 L-636.039,-389.313 L-650.595,-354.876 Z M-570.005,-231.683 C-554.029,-192.986 -539.473,-158.194 -537.343,-154.288 C-534.148,-148.253 -536.633,-147.898 -598.407,-147.898 C-658.051,-147.898 -662.666,-148.253 -660.536,-154.288 C-651.66,-177.72 -600.182,-303.753 -599.472,-303.043 C-599.117,-302.688 -585.626,-270.381 -570.005,-231.683 Z " fill="#1a3156" fill-opacity="1.00"/>				<path d="M-318.294,-387.183 C-320.07,-385.763 -321.135,-295.232 -321.135,-185.885 L-321.135,12.572 L-206.462,11.1519 C-77.5894,9.37679 -67.2938,7.60167 -32.1466,-19.38 C16.1364,-55.9472 22.1718,-125.887 -19.3658,-166.004 C-28.5964,-175.235 -42.0872,-184.465 -49.1877,-186.95 C-61.2584,-190.856 -66.9388,-197.601 -57.7082,-197.601 C-48.8327,-197.601 -29.3065,-216.772 -20.7859,-234.168 C-8.36012,-258.665 -7.65008,-294.167 -19.3658,-320.794 C-30.3715,-346.355 -54.513,-368.367 -83.2698,-378.662 C-104.926,-386.118 -113.092,-386.828 -211.078,-388.248 C-268.591,-389.313 -316.874,-388.958 -318.294,-387.183 Z M-109.186,-315.468 C-100.666,-311.208 -91.7903,-303.043 -88.5951,-297.007 C-80.4296,-281.386 -81.8497,-257.6 -91.4353,-243.399 C-104.216,-224.228 -124.097,-219.257 -190.486,-218.902 L-246.58,-218.902 L-246.58,-326.119 L-185.161,-324.699 C-130.843,-323.279 -122.322,-322.569 -109.186,-315.468 Z M-90.7252,-149.673 C-71.9091,-138.667 -63.7436,-125.177 -63.7436,-105.295 C-63.7436,-84.3491 -72.2641,-71.2132 -92.5004,-60.9176 C-104.571,-54.5272 -114.867,-53.8172 -176.286,-52.752 L-246.58,-51.332 L-246.58,-159.259 L-174.51,-157.839 C-110.606,-156.774 -101.376,-156.063 -90.7252,-149.673 Z " fill="#1a3156" fill-opacity="1.00"/>				<path d="M108.442,-389.668 L108.442,12.217 L179.447,10.0869 L179.447,-387.538 L108.442,-389.668 Z " fill="#1a3156" fill-opacity="1.00"/>				<path d="M884.52,-379.017 C881.68,-374.047 868.545,-342.805 854.699,-309.433 C840.853,-276.416 805.706,-191.921 776.239,-121.981 C746.772,-52.042 722.63,6.89168 722.63,8.66672 C722.63,10.7969 737.896,11.8619 759.908,11.1519 L797.54,10.0869 L816.001,-36.066 L834.817,-82.2189 L925.348,-83.284 L1016.23,-83.994 L1035.76,-37.1311 L1055.64,10.0869 L1134.46,12.217 L1121.68,-17.2499 C1106.76,-51.687 980.732,-347.42 970.081,-372.627 L962.98,-389.668 L926.058,-388.958 C890.201,-388.603 889.136,-388.248 884.52,-379.017 Z M957.655,-225.293 L988.187,-149.673 L956.59,-148.608 C939.194,-148.253 910.792,-148.253 893.396,-148.608 L861.444,-149.673 L892.331,-224.938 C909.372,-266.475 923.928,-300.558 924.993,-300.558 C926.058,-300.558 940.614,-266.475 957.655,-225.293 Z " fill="#1a3156" fill-opacity="1.00"/>				<path d="M1201.91,-387.183 L1201.91,10.0869 L1272.91,12.217 L1272.91,-388.603 L1237.41,-388.603 C1217.89,-388.603 1201.91,-388.248 1201.91,-387.183 Z " fill="#1a3156" fill-opacity="1.00"/>				<path d="M1382.97,-389.313 L1382.97,11.8619 L1635.04,11.8619 L1635.04,-55.5923 L1457.53,-55.5923 L1457.53,-389.313 L1382.97,-389.313 Z " fill="#1a3156" fill-opacity="1.00"/>				<path d="M715.273,157.568 C671.961,171.769 641.074,208.336 636.458,251.294 C630.068,308.807 651.724,353.185 697.522,376.971 C719.889,388.687 769.592,390.107 795.863,380.167 C806.869,376.261 820.715,368.451 827.105,363.126 L838.821,353.185 L827.46,338.274 C815.745,323.008 815.745,323.008 808.289,330.108 C796.218,341.469 775.982,347.86 752.551,347.86 C724.859,347.86 706.753,338.274 691.487,316.618 C682.611,304.192 680.481,297.091 679.416,276.5 C677.286,243.483 689.357,217.566 712.433,204.076 C740.835,187.39 780.242,188.81 802.254,207.626 C808.289,212.596 813.614,216.501 814.324,216.501 C815.389,216.501 821.07,209.401 827.105,200.88 L838.111,185.614 L830.3,178.514 C826.04,174.254 815.389,167.508 806.514,162.893 C786.633,152.952 738.35,150.112 715.273,157.568 Z " fill="#1a3156" fill-opacity="1.00"/>				<path d="M-794.636,156.148 L-794.636,383.362 L-752.033,383.362 L-752.033,294.606 L-652.627,294.606 L-652.627,259.104 L-752.033,259.104 L-752.033,195.2 L-641.976,195.2 L-641.976,156.148 L-794.636,156.148 Z " fill="#1a3156" fill-opacity="1.00"/>				<path d="M-514.168,156.148 L-514.168,383.362 L-471.566,383.362 L-471.566,156.148 L-514.168,156.148 Z " fill="#1a3156" fill-opacity="1.00"/>				<path d="M-340.207,156.148 L-340.207,383.362 L-297.605,383.362 L-297.605,225.732 L-180.448,383.362 L-137.845,383.362 L-137.845,156.148 L-180.448,156.148 L-181.158,232.832 L-182.223,309.162 L-239.026,232.832 L-295.83,156.148 L-340.207,156.148 Z " fill="#1a3156" fill-opacity="1.00"/>				<path d="M62.7427,167.508 C33.9859,237.803 -24.2378,380.522 -24.2378,381.587 C-24.2378,382.652 -14.6522,383.362 -3.29147,383.362 L17.6548,383.362 L27.9505,358.51 L37.8911,333.659 L141.558,333.659 L161.439,383.362 L206.527,383.362 L200.136,368.096 C196.941,359.575 175.64,308.452 153.273,254.489 L112.446,156.148 L90.0794,156.148 C68.068,156.148 67.713,156.503 62.7427,167.508 Z M108.185,251.294 C117.416,274.015 124.872,293.896 124.872,295.316 C124.872,297.091 108.896,298.156 89.0143,298.156 C56.3523,298.156 53.1571,297.446 55.2872,291.766 C67.3579,259.814 87.9492,209.401 89.3693,209.401 C90.4344,209.401 98.5999,228.217 108.185,251.294 Z " fill="#1a3156" fill-opacity="1.00"/>				<path d="M316.583,156.148 L316.583,383.362 L359.186,383.362 L359.896,307.032 L360.961,230.347 L474.568,383.007 L495.16,383.362 L515.396,383.362 L515.396,156.148 L474.568,156.148 L474.923,232.477 C474.923,298.867 473.148,319.103 468.533,305.257 C468.178,303.482 443.681,269.045 414.215,228.927 L360.961,156.503 L338.95,156.148 L316.583,156.148 Z " fill="#1a3156" fill-opacity="1.00"/>				<path d="M955.623,156.148 L955.623,383.362 L1108.28,383.362 L1108.28,348.215 L1052.54,347.15 L996.451,346.085 L995.386,316.618 L994.321,287.506 L1094.08,287.506 L1094.08,252.004 L994.676,252.004 L994.676,195.2 L1108.28,195.2 L1108.28,156.148 L955.623,156.148 Z " fill="#1a3156" fill-opacity="1.00"/>			</g>		</g>	</svg>